<?xml version="1.0" standalone="no"?>
<!DOCTYPE svg PUBLIC "-//W3C//DTD SVG 20010904//EN"
 "http://www.w3.org/TR/2001/REC-SVG-20010904/DTD/svg10.dtd">
<svg version="1.0" xmlns="http://www.w3.org/2000/svg"
 width="796.000000pt" height="800.000000pt" viewBox="0 0 796.000000 800.000000"
 preserveAspectRatio="xMidYMid meet">
<metadata>
Created by potrace 1.16, written by Peter Selinger 2001-2019
</metadata>
<g transform="translate(0.000000,800.000000) scale(0.100000,-0.100000)"
fill="#000000" stroke="none">
<path d="M1290 6205 c-378 -76 -678 -365 -765 -736 l-13 -59 276 0 277 0 28
55 c56 106 182 194 308 215 43 6 1051 10 3062 10 l2997 0 0 265 0 265 -3052
-1 c-2467 -1 -3065 -3 -3118 -14z"/>
<path d="M502 5196 c3 -51 8 -98 12 -105 5 -8 88 -11 287 -11 153 0 279 2 279
5 0 3 -9 24 -20 45 -11 22 -23 67 -27 100 l-6 60 -265 0 -265 0 5 -94z"/>
<path d="M3629 5279 c-96 -10 -219 -41 -317 -80 -81 -32 -198 -94 -208 -110
-3 -6 351 -8 908 -7 l913 3 0 100 0 100 -610 1 c-335 1 -644 -2 -686 -7z"/>
<path d="M6129 5279 c-96 -10 -222 -42 -319 -80 -81 -33 -195 -93 -205 -109
-4 -7 322 -10 924 -10 l931 0 0 105 0 105 -627 -1 c-346 -1 -662 -5 -704 -10z"/>
<path d="M550 4954 c0 -12 94 -185 106 -195 7 -6 202 -8 515 -7 l504 3 -116
37 c-140 45 -207 75 -295 128 l-66 40 -324 0 c-178 0 -324 -3 -324 -6z"/>
<path d="M2889 4913 c-26 -27 -65 -73 -89 -103 l-43 -55 1074 -3 c591 -1 1080
0 1087 3 9 3 12 30 10 102 l-3 98 -995 3 -996 2 -45 -47z"/>
<path d="M5384 4908 c-56 -58 -124 -141 -124 -152 0 -3 495 -6 1100 -6 l1100
0 0 105 0 105 -1013 0 -1013 0 -50 -52z"/>
<path d="M770 4626 c0 -10 143 -119 210 -160 l74 -46 581 0 580 1 -61 57 c-33
32 -92 79 -131 105 l-71 47 -591 0 c-325 0 -591 -2 -591 -4z"/>
<path d="M2651 4555 c-17 -41 -34 -88 -37 -105 l-6 -30 285 0 286 0 30 43 c16
24 59 71 96 105 l66 62 -345 0 -344 0 -31 -75z"/>
<path d="M4390 4525 l0 -105 268 2 267 3 3 103 3 102 -271 0 -270 0 0 -105z"/>
<path d="M5156 4571 c-37 -82 -55 -138 -49 -145 4 -3 133 -6 287 -6 l282 0 48
64 c27 36 71 83 99 105 l50 41 -345 0 -345 0 -27 -59z"/>
<path d="M6846 4542 c-30 -48 -58 -95 -61 -105 -7 -16 13 -17 304 -17 l311 0
30 48 c24 38 30 58 30 105 l0 57 -279 0 -279 0 -56 -88z"/>
<path d="M1440 4271 c125 -42 194 -75 286 -136 143 -95 204 -187 204 -306 0
-143 -72 -279 -190 -357 -116 -78 -98 -76 -707 -80 l-543 -3 0 -265 0 -264
553 0 c499 0 561 2 642 19 419 86 727 425 777 853 20 173 -16 354 -100 498
l-38 65 -484 2 -485 2 85 -28z"/>
<path d="M2563 4253 c-4 -27 -8 -115 -7 -198 0 -129 4 -165 28 -257 123 -482
479 -820 964 -914 67 -13 147 -17 352 -18 l265 -1 3 268 2 267 -235 0 c-276 0
-347 11 -474 72 -164 79 -314 264 -356 439 -19 83 -19 248 0 322 8 32 15 60
15 62 0 3 -123 5 -274 5 l-275 0 -8 -47z"/>
<path d="M4390 3580 l0 -720 268 2 267 3 3 718 2 717 -270 0 -270 0 0 -720z"/>
<path d="M5066 4278 c-17 -56 -18 -294 -2 -393 78 -474 432 -863 893 -981 153
-39 263 -44 899 -44 l604 0 0 270 0 270 -637 0 c-715 0 -720 1 -858 69 -238
119 -378 343 -378 606 0 87 5 124 29 208 5 16 -12 17 -269 17 l-275 0 -6 -22z"/>
<path d="M6485 3963 c-116 -185 -214 -342 -218 -350 -7 -11 46 -13 305 -13
l313 0 215 342 c118 188 217 345 218 350 2 4 -137 8 -310 8 l-313 0 -210 -337z"/>
<path d="M2173 2320 c-63 -28 -85 -69 -81 -152 3 -55 8 -72 28 -93 29 -31 74
-55 147 -79 61 -20 83 -46 83 -96 0 -47 -23 -78 -63 -85 -63 -12 -96 14 -111
88 -6 25 -10 27 -51 27 -44 0 -45 -1 -45 -32 0 -18 9 -52 20 -76 27 -61 86
-86 183 -79 113 8 162 58 162 165 0 95 -20 120 -136 168 -106 44 -134 71 -125
124 14 90 135 94 152 5 6 -34 8 -35 51 -35 l46 0 -5 50 c-6 56 -26 86 -75 106
-46 20 -130 17 -180 -6z"/>
<path d="M490 2040 l0 -290 50 0 50 0 0 290 0 290 -50 0 -50 0 0 -290z"/>
<path d="M1150 2040 l0 -290 50 0 50 0 2 207 3 207 49 -130 c27 -71 62 -164
78 -206 l30 -78 59 0 59 0 0 290 0 290 -45 0 -45 0 -2 -212 -3 -212 -81 209
-81 210 -62 3 -61 3 0 -291z"/>
<path d="M2960 2290 l0 -40 65 0 65 0 0 -250 0 -250 50 0 50 0 0 250 0 250 70
0 70 0 0 40 0 40 -185 0 -185 0 0 -40z"/>
<path d="M3850 2040 l0 -290 50 0 50 0 0 290 0 290 -50 0 -50 0 0 -290z"/>
<path d="M4470 2290 l0 -40 70 0 70 0 0 -250 0 -250 50 0 50 0 0 250 0 250 65
0 65 0 0 40 0 40 -185 0 -185 0 0 -40z"/>
<path d="M5362 2093 c3 -211 5 -242 22 -277 50 -99 259 -102 313 -4 16 29 18
64 21 276 l3 242 -50 0 -51 0 0 -235 0 -236 -25 -24 c-15 -16 -36 -25 -55 -25
-19 0 -40 9 -55 25 l-25 24 0 236 0 235 -51 0 -50 0 3 -237z"/>
<path d="M6240 2290 l0 -40 70 0 70 0 0 -250 0 -250 50 0 50 0 0 250 0 250 65
0 65 0 0 40 0 40 -185 0 -185 0 0 -40z"/>
<path d="M7140 2040 l0 -290 160 0 160 0 0 40 0 40 -110 0 -110 0 0 90 0 90
100 0 100 0 0 40 0 40 -100 0 -100 0 0 80 0 80 110 0 110 0 0 40 0 40 -160 0
-160 0 0 -290z"/>
</g>
</svg>
