<!DOCTYPE svg PUBLIC "-//W3C//DTD SVG 20010904//EN" "http://www.w3.org/TR/2001/REC-SVG-20010904/DTD/svg10.dtd">
<svg version="1.0" xmlns="http://www.w3.org/2000/svg" width="1024px" height="758px" viewBox="0 0 10240 7580" preserveAspectRatio="xMidYMid meet">
<g id="layer101" fill="#292929" stroke="none">
 <path d="M110 3835 l0 -3615 130 0 130 0 0 34 0 33 -71 7 c-51 5 -72 12 -76 24 -8 18 26 6049 34 6072 2 8 5 218 6 465 l2 450 195 7 c107 4 496 23 865 43 1433 75 1589 80 2475 80 541 -1 838 -5 985 -14 123 -8 443 -15 770 -16 757 -4 1127 -19 2490 -100 959 -57 1466 -82 1815 -88 l115 -2 2 -195 c7 -565 53 -6092 53 -6367 0 -298 -1 -322 -17 -327 -10 -2 -44 -10 -75 -17 l-58 -12 0 -54 0 -53 125 0 125 0 0 3630 0 3630 -5010 0 -5010 0 0 -3615z"/>
 <path d="M2975 7380 c-380 -12 -875 -35 -1635 -75 -360 -19 -739 -37 -843 -41 l-187 -7 0 -276 c0 -631 68 -4761 100 -6116 6 -225 10 -469 10 -541 l0 -131 463 -6 c487 -7 628 -12 1457 -52 1217 -59 1683 -61 2140 -9 226 26 541 99 588 136 9 8 12 730 12 3550 0 2822 -3 3539 -12 3543 -75 24 -1564 41 -2093 25z"/>
 <path d="M5318 7353 l-198 -3 0 -3540 0 -3539 38 -11 c132 -37 442 -82 722 -105 426 -33 728 -37 2358 -30 l1592 7 0 162 c0 88 23 1610 50 3381 27 1771 50 3282 50 3358 l0 137 -142 0 c-240 0 -619 19 -1758 85 -1499 88 -2077 109 -2712 98z"/>
 <path d="M9912 2506 c-18 -1181 -31 -2150 -29 -2153 3 -2 25 1 51 8 l46 11 0 317 c0 340 -29 3780 -33 3896 -1 39 -17 -897 -35 -2079z"/>
 <path d="M287 3565 c-4 -440 -10 -1343 -14 -2006 l-6 -1206 24 -6 c13 -4 37 -7 53 -7 l29 0 -7 248 c-12 438 -50 2422 -64 3347 l-7 430 -8 -800z"/>
 </g>
<g id="layer102" fill="#ffffff" stroke="none">
 <path d="M90 7490 c-13 -8 -15 -426 -15 -3662 l0 -3653 149 -3 c111 -2 152 -6 160 -16 9 -11 103 -15 481 -20 492 -6 626 -11 1460 -51 854 -41 1088 -48 1515 -42 507 7 743 30 1018 97 113 27 138 30 295 30 118 0 214 -6 307 -20 166 -24 383 -45 640 -62 254 -17 3746 -13 3767 4 7 6 13 21 13 34 0 23 0 23 142 26 l142 3 8 31 c4 18 7 1669 6 3670 l-3 3639 -5035 2 c-3163 2 -5041 -1 -5050 -7z m10040 -3670 l0 -3630 -125 0 -125 0 0 53 0 54 58 12 c31 7 65 15 75 17 16 5 17 29 17 327 0 275 -46 5802 -53 6367 l-2 195 -115 2 c-349 6 -856 31 -1815 88 -1363 81 -1733 96 -2490 100 -327 1 -647 8 -770 16 -147 9 -444 13 -985 14 -886 0 -1042 -5 -2475 -80 -369 -20 -758 -39 -865 -43 l-195 -7 -2 -450 c-1 -247 -4 -457 -6 -465 -8 -23 -42 -6054 -34 -6072 4 -12 25 -19 76 -24 l71 -7 0 -33 0 -34 -130 0 -130 0 0 3615 0 3615 5010 0 5010 0 0 -3630z m-5305 3550 c127 -6 236 -13 243 -15 9 -4 12 -721 12 -3543 0 -2820 -3 -3542 -12 -3550 -23 -18 -206 -72 -331 -96 -462 -92 -993 -99 -2397 -31 -829 40 -970 45 -1457 52 l-463 6 0 131 c0 72 -4 316 -10 541 -32 1355 -100 5485 -100 6116 l0 276 187 7 c104 4 483 22 843 41 760 40 1255 63 1635 75 359 11 1561 5 1850 -10z m1575 -31 c361 -12 657 -27 1630 -84 1139 -66 1518 -85 1758 -85 l142 0 0 -137 c0 -76 -23 -1587 -50 -3358 -27 -1771 -50 -3293 -50 -3381 l0 -162 -1592 -7 c-1630 -7 -1932 -3 -2358 30 -280 23 -590 68 -722 105 l-38 11 0 3539 0 3540 198 3 c260 4 716 -1 1082 -14z m3565 -4579 c8 -965 15 -1897 15 -2071 l0 -317 -46 -11 c-26 -7 -48 -10 -51 -8 -2 3 11 972 29 2153 18 1182 34 2118 35 2079 2 -38 10 -860 18 -1825z m-9646 135 c18 -940 40 -2033 47 -2307 l7 -248 -29 0 c-16 0 -40 3 -53 7 l-24 6 6 1206 c4 663 10 1566 14 2006 l8 800 7 -430 c3 -236 11 -704 17 -1040z"/>
 </g>

</svg>